<?xml version="1.0" standalone="no"?>
<!DOCTYPE svg PUBLIC "-//W3C//DTD SVG 20010904//EN"
 "http://www.w3.org/TR/2001/REC-SVG-20010904/DTD/svg10.dtd">
<svg version="1.0" xmlns="http://www.w3.org/2000/svg"
 width="700.000000pt" height="700.000000pt" viewBox="0 0 700.000000 700.000000"
 preserveAspectRatio="xMidYMid meet">
<metadata>
Created by potrace 1.14, written by Peter Selinger 2001-2017
</metadata>
<g transform="translate(0.000000,700.000000) scale(0.100000,-0.100000)"
fill="#000000" stroke="none">
<path d="M2040 5435 l0 -305 -390 0 -390 0 0 -1935 0 -1935 2240 0 2240 0 0
1930 0 1930 -390 0 -390 0 0 310 0 310 -1460 0 -1460 0 0 -305z m2630 -285 l0
-310 395 0 395 0 0 -1650 0 -1650 -235 0 -235 0 0 425 0 425 -195 0 -195 0 0
-425 0 -425 -235 0 -235 0 0 425 0 425 -195 0 -195 0 0 -425 0 -425 -240 0
-240 0 0 425 0 425 -195 0 -195 0 0 -425 0 -425 -235 0 -235 0 0 425 0 425
-195 0 -195 0 0 -425 0 -425 -235 0 -235 0 0 1650 0 1650 395 0 395 0 0 310 0
310 1170 0 1170 0 0 -310z"/>
</g>
</svg>
